<svg id="visual" viewBox="0 0 960 540" width="960" height="540" xmlns="http://www.w3.org/2000/svg" xmlns:xlink="http://www.w3.org/1999/xlink" version="1.1"><rect x="0" y="0" width="960" height="540" fill="#7ebdee"></rect><path d="M0 333L22.8 341.7C45.7 350.3 91.3 367.7 137 365.7C182.7 363.7 228.3 342.3 274 342.8C319.7 343.3 365.3 365.7 411.2 377.3C457 389 503 390 548.8 385.3C594.7 380.7 640.3 370.3 686 358.2C731.7 346 777.3 332 823 332.8C868.7 333.7 914.3 349.3 937.2 357.2L960 365L960 541L937.2 541C914.3 541 868.7 541 823 541C777.3 541 731.7 541 686 541C640.3 541 594.7 541 548.8 541C503 541 457 541 411.2 541C365.3 541 319.7 541 274 541C228.3 541 182.7 541 137 541C91.3 541 45.7 541 22.8 541L0 541Z" fill="#6983fa"></path><path d="M0 363L22.8 364C45.7 365 91.3 367 137 372.5C182.7 378 228.3 387 274 392.8C319.7 398.7 365.3 401.3 411.2 399.2C457 397 503 390 548.8 388C594.7 386 640.3 389 686 396C731.7 403 777.3 414 823 416.5C868.7 419 914.3 413 937.2 410L960 407L960 541L937.2 541C914.3 541 868.7 541 823 541C777.3 541 731.7 541 686 541C640.3 541 594.7 541 548.8 541C503 541 457 541 411.2 541C365.3 541 319.7 541 274 541C228.3 541 182.7 541 137 541C91.3 541 45.7 541 22.8 541L0 541Z" fill="#5a6def"></path><path d="M0 438L22.8 435.8C45.7 433.7 91.3 429.3 137 429.3C182.7 429.3 228.3 433.7 274 434.8C319.7 436 365.3 434 411.2 427.5C457 421 503 410 548.8 410.7C594.7 411.3 640.3 423.7 686 423.7C731.7 423.7 777.3 411.3 823 407.5C868.7 403.7 914.3 408.3 937.2 410.7L960 413L960 541L937.2 541C914.3 541 868.7 541 823 541C777.3 541 731.7 541 686 541C640.3 541 594.7 541 548.8 541C503 541 457 541 411.2 541C365.3 541 319.7 541 274 541C228.3 541 182.7 541 137 541C91.3 541 45.7 541 22.8 541L0 541Z" fill="#4e57e3"></path><path d="M0 439L22.8 440.2C45.7 441.3 91.3 443.7 137 446.7C182.7 449.7 228.3 453.3 274 451.3C319.7 449.3 365.3 441.7 411.2 444.2C457 446.7 503 459.3 548.8 466.8C594.7 474.3 640.3 476.7 686 472.8C731.7 469 777.3 459 823 457.8C868.7 456.7 914.3 464.3 937.2 468.2L960 472L960 541L937.2 541C914.3 541 868.7 541 823 541C777.3 541 731.7 541 686 541C640.3 541 594.7 541 548.8 541C503 541 457 541 411.2 541C365.3 541 319.7 541 274 541C228.3 541 182.7 541 137 541C91.3 541 45.7 541 22.8 541L0 541Z" fill="#4440d6"></path><path d="M0 482L22.8 485.5C45.7 489 91.3 496 137 498C182.7 500 228.3 497 274 494.2C319.7 491.3 365.3 488.7 411.2 485.3C457 482 503 478 548.8 478.8C594.7 479.7 640.3 485.3 686 491.5C731.7 497.7 777.3 504.3 823 503.3C868.7 502.3 914.3 493.7 937.2 489.3L960 485L960 541L937.2 541C914.3 541 868.7 541 823 541C777.3 541 731.7 541 686 541C640.3 541 594.7 541 548.8 541C503 541 457 541 411.2 541C365.3 541 319.7 541 274 541C228.3 541 182.7 541 137 541C91.3 541 45.7 541 22.8 541L0 541Z" fill="#3d24c7"></path></svg>